<svg width="651" height="577" viewBox="0 0 651 577" fill="none" xmlns="http://www.w3.org/2000/svg">
<mask id="mask0_17_59" style="mask-type:luminance" maskUnits="userSpaceOnUse" x="0" y="0" width="651" height="577">
<path d="M651 0.166992H0V577H651V0.166992Z" fill="white"/>
</mask>
<g mask="url(#mask0_17_59)">
<path d="M566.857 392.219C598.711 411.256 598.878 442.117 567.232 461.155L418.679 550.517C387.033 569.555 335.565 569.556 303.711 550.518L154.186 461.157C122.332 442.12 122.164 411.259 153.811 392.221L302.364 302.859C334.01 283.821 385.478 283.82 417.332 302.858L566.857 392.219Z" fill="#79AEF5"/>
<path d="M567.231 376.707L418.679 466.07C387.032 485.108 335.565 485.108 303.71 466.071L154.186 376.71C138.157 367.129 130.15 354.556 130.185 342.002L130.137 359.787C130.102 372.341 138.108 384.915 154.138 394.494L303.661 483.856C335.515 502.893 386.984 502.893 418.63 483.855L567.183 394.492C582.905 385.034 590.774 372.659 590.808 360.265L590.857 342.48C590.823 354.875 582.953 367.249 567.231 376.707Z" fill="#A6D0F4"/>
<path d="M566.857 307.773C598.711 326.81 598.878 357.67 567.232 376.708L418.679 466.071C387.033 485.108 335.565 485.108 303.711 466.071L154.186 376.71C122.332 357.672 122.164 326.812 153.811 307.775L302.364 218.412C334.01 199.374 385.478 199.374 417.332 218.411L566.857 307.773Z" fill="#E6F3FF"/>
<path d="M348.608 257.176C348.608 257.176 352.275 261.256 352.143 263.023C352.011 264.789 349.521 262.657 349.521 262.657C349.521 262.657 351.054 268.019 349.817 269.563C348.58 271.106 347.362 267.642 347.362 267.642C347.362 267.642 345.54 269.517 343.535 267.727C341.529 265.937 341.17 261.218 342.368 258.16C343.566 255.1 348.608 257.176 348.608 257.176Z" fill="#FF9554"/>
<path d="M345.101 176.054C345.101 176.054 337.269 177.255 335.492 188.966C333.715 200.676 335.199 218.18 335.491 223.373C335.783 228.565 340.297 256.936 340.811 258.296C341.372 259.938 346.848 261.811 349.247 257.272C350.623 251.761 346.866 229.661 347.955 220.705C349.044 211.75 351.58 189.108 350.869 183.12C350.157 177.132 345.101 176.054 345.101 176.054Z" fill="#113569"/>
<path d="M589.678 119.159L414.476 14.4509C408.145 10.6674 402.405 10.3148 398.262 12.8075L387.982 18.9914C392.126 16.4987 397.865 16.8507 404.196 20.6342L579.398 125.343C591.97 132.856 602.124 151.062 602.084 166.016L601.792 272.683C601.771 280.112 599.239 285.338 595.153 287.796L605.433 281.612C609.518 279.155 612.051 273.928 612.071 266.499L612.363 159.832C612.404 144.878 602.249 126.672 589.678 119.159Z" fill="#C8F3FF"/>
<path d="M579.399 125.342C591.97 132.855 602.125 151.062 602.084 166.015L601.792 272.683C601.751 287.636 591.53 293.666 578.959 286.153L403.757 181.445C391.185 173.931 381.012 155.713 381.053 140.76L381.345 34.0926C381.386 19.1391 391.625 13.1208 404.197 20.6345L579.399 125.342Z" fill="#7E90FE"/>
<path d="M423.385 106.82L416.617 82.4775L420.097 84.3518L423.287 96.5353C424.088 99.5583 424.814 102.546 425.303 104.82L425.38 104.863C425.775 103.019 426.552 100.986 427.403 98.7729L430.751 90.0909L434.31 92.0082L437.694 104.505C438.483 107.44 439.234 110.359 439.663 112.822L439.743 112.867C440.267 110.841 440.991 108.892 441.791 106.7L445.205 97.8778L448.804 99.8167L441.424 116.977L437.803 114.938L434.293 102.04C433.432 98.8947 432.855 96.5299 432.474 94.2128L432.395 94.1704C431.956 96.009 431.398 97.7506 430.461 99.9311L426.887 108.791L423.385 106.82Z" fill="white"/>
<path d="M466.93 121.133L455.978 115.091L456.097 122.909L468.33 129.764L468.368 132.148L452.553 123.243L452.227 101.66L467.378 109.823L467.416 112.199L455.837 105.931L455.942 112.776L466.893 118.788L466.93 121.133Z" fill="white"/>
<path d="M487.069 135.674L484.101 141.006L480.16 138.786L489.864 121.935L494.56 124.465L505.44 153.02L501.174 150.619L497.771 141.618L487.069 135.674ZM496.916 138.873L493.826 130.715C493.126 128.872 492.656 127.287 492.184 125.738L492.095 125.69C491.671 126.787 491.204 127.891 490.649 128.947L487.828 133.848L496.916 138.873Z" fill="white"/>
<path d="M509.598 132.87C511.639 133.666 514.584 135.083 517.408 136.604C521.82 138.979 524.699 141.114 526.744 143.524C528.404 145.455 529.355 147.558 529.391 149.373C529.453 152.479 526.788 153.05 523.396 152.006L523.398 152.11C525.905 154.112 527.431 156.609 528.252 159.479C529.382 163.356 530.203 166.064 530.901 167.357L526.546 164.905C526.003 163.945 525.242 161.521 524.272 158.09C523.252 154.33 521.51 152.165 517.758 149.989L513.897 147.856L514.087 157.89L510.022 155.601L509.598 132.87ZM513.854 145.59L518.045 147.896C522.465 150.327 525.256 150.109 525.203 147.433C525.144 144.411 522.103 141.461 517.736 139.063C515.756 137.992 514.348 137.368 513.695 137.15L513.854 145.59Z" fill="white"/>
<path d="M552.948 168.582L539.8 161.329L539.976 169.915L554.663 178.146L554.719 180.767L535.738 170.08L535.258 146.389L553.437 156.182L553.493 158.795L539.594 151.271L539.748 158.787L552.893 166.004L552.948 168.582Z" fill="white"/>
<path d="M426.952 125.077L427.071 133.869L439.875 141.452L439.747 132.525L443.267 134.573L443.578 156.017L440.052 153.879L439.909 143.86L427.103 136.24L427.236 146.105L423.88 144.07L423.602 123.126L426.952 125.077Z" fill="white"/>
<path d="M452.931 140.198L453.258 161.888L449.695 159.727L449.373 138.127L452.931 140.198Z" fill="white"/>
<path d="M459.221 144.148C461.053 144.926 463.693 146.301 466.224 147.774C470.176 150.074 472.754 152.128 474.581 154.433C476.065 156.281 476.913 158.282 476.942 160.001C476.991 162.945 474.601 163.458 471.562 162.434L471.564 162.533C473.807 164.455 475.17 166.836 475.9 169.563C476.903 173.246 477.634 175.819 478.256 177.05L474.359 174.686C473.875 173.771 473.198 171.468 472.336 168.208C471.428 164.634 469.871 162.566 466.51 160.466L463.05 158.404L463.199 167.918L459.556 165.707L459.221 144.148ZM463.016 156.255L466.772 158.485C470.731 160.835 473.233 160.656 473.192 158.121C473.145 155.257 470.426 152.429 466.513 150.11C464.739 149.073 463.476 148.464 462.89 148.251L463.016 156.255Z" fill="white"/>
<path d="M486.032 159.465L486.419 182L482.583 179.673L482.203 157.236L486.032 159.465Z" fill="white"/>
<path d="M493.2 186.114L492.801 163.406L497.083 165.899L507.183 183.317C509.555 187.408 511.419 190.937 512.962 194.214L513.055 194.236C512.622 190.909 512.476 188.029 512.408 184.414L512.225 174.713L516.077 176.955L516.521 200.258L512.38 197.747L502.251 180.081C500.056 176.258 497.962 172.44 496.378 169.066L496.243 169.02C496.52 172.026 496.659 174.818 496.727 178.607L496.9 188.358L493.2 186.114Z" fill="white"/>
<path d="M549.005 218.898C547.048 218.208 543.202 216.687 538.675 213.94C533.653 210.893 529.538 207.493 526.3 203.353C523.472 199.716 521.689 195.549 521.618 191.897C521.53 184.937 528.061 183.688 539.118 190.121C542.995 192.377 546.06 194.76 547.529 196.109L546.526 198.027C544.708 196.399 542.449 194.622 539.073 192.648C531.022 187.943 525.912 188.476 526.028 194.38C526.145 200.358 531.208 206.907 538.921 211.567C541.752 213.278 543.693 214.168 544.687 214.416L544.538 207.246L537.724 203.184L537.674 200.706L548.761 207.289L549.005 218.898Z" fill="white"/>
<path d="M196.189 107.115C196.402 116.919 191.494 124.36 185.205 127.131C178.501 130.085 173.586 126.017 173.463 116.906C173.336 107.412 178.339 99.3468 185.041 96.8568C191.687 94.3876 196.006 98.7182 196.189 107.115ZM177.049 115.36C177.143 121.73 180.203 126.171 185.335 123.946C190.386 121.756 193.078 115.112 192.944 108.601C192.828 102.924 190.211 97.9618 184.948 99.9538C179.593 101.981 176.953 108.843 177.049 115.36Z" fill="#5C6BC0"/>
<path d="M199.807 92.1623C201.234 91.3386 203.091 90.3985 205.439 89.525C208.287 88.465 210.371 88.5014 211.71 89.459C212.94 90.2888 213.704 91.9793 213.771 94.3832C213.84 96.8314 213.314 98.9944 212.253 100.852C210.808 103.451 208.367 105.488 205.532 106.659C204.658 107.02 203.846 107.314 203.163 107.386L203.436 118.632L200.45 119.945L199.807 92.1623ZM203.092 104.445C203.74 104.39 204.552 104.144 205.527 103.748C209.019 102.329 211.062 99.4089 210.96 95.647C210.863 92.0567 208.756 91.1064 205.576 92.3111C204.305 92.7929 203.332 93.2848 202.829 93.6415L203.092 104.445Z" fill="#5C6BC0"/>
<path d="M228.438 95.1477L220.427 98.4163L220.722 108.078L229.655 104.216L229.752 107.063L218.069 112.199L217.273 85.3203L228.422 81.166L228.516 83.9683L220.083 87.1716L220.339 95.567L228.344 92.3582L228.438 95.1477Z" fill="#5C6BC0"/>
<path d="M233.107 105.588L232.199 79.7583L234.956 78.7313L241.569 89.1442C243.078 91.5239 244.265 93.7218 245.25 95.9197L245.304 95.8585C244.951 92.6006 244.775 89.5756 244.621 85.6831L244.209 75.2837L246.447 74.4492L247.451 99.2826L245.033 100.345L238.536 90.0319C237.09 87.7404 235.692 85.3399 234.611 82.9576L234.525 83.0283C234.786 86.1932 234.955 89.2459 235.109 93.5091L235.506 104.534L233.107 105.588Z" fill="#5C6BC0"/>
<path d="M146.299 196.368L136.234 167.987L140.534 165.922L145.302 179.927C146.611 183.742 147.738 187.199 148.554 190.669L148.642 190.621C149.464 186.329 150.674 181.517 151.96 176.552L156.75 158.134L160.656 156.259L150.561 194.024L146.299 196.368Z" fill="#5C6BC0"/>
<path d="M166.034 175.419L163.241 187.053L159.459 189.132L168.6 152.444L172.785 150.434L182.185 176.637L178.592 178.613L175.633 170.354L166.034 175.419ZM174.881 167.59L172.151 159.982C171.528 158.252 171.107 156.605 170.686 155.004L170.606 155.043C170.228 157.085 169.81 159.197 169.31 161.357L166.738 171.831L174.881 167.59Z" fill="#5C6BC0"/>
<path d="M202.456 164.524C201.354 165.834 199.113 167.774 196.186 169.386C189.248 173.209 183.783 170.713 183.615 160.723C183.455 151.25 188.668 142.318 196.216 138.702C199.177 137.283 201.042 137.165 201.851 137.293L201.194 140.675C200.029 140.552 198.37 140.84 196.391 141.803C190.706 144.569 186.925 150.926 187.067 158.809C187.201 166.197 190.811 169.049 196.763 165.816C198.652 164.79 200.549 163.275 201.758 161.872L202.456 164.524Z" fill="#5C6BC0"/>
<path d="M209.849 152.297L207.718 162.6L204.633 164.296L211.628 131.78L215.062 130.131L223.241 154.065L220.287 155.689L217.713 148.146L209.849 152.297ZM217.05 145.633L214.677 138.689C214.136 137.11 213.764 135.614 213.391 134.16L213.326 134.192C213.043 136.011 212.729 137.893 212.347 139.814L210.376 149.108L217.05 145.633Z" fill="#5C6BC0"/>
<path d="M226.34 152.361L225.465 125.135L228.37 123.74L235.297 134.005C236.877 136.349 238.117 138.538 239.147 140.749L239.203 140.678C238.841 137.275 238.666 134.099 238.515 130.002L238.112 119.061L240.466 117.931L241.449 144.054L238.905 145.453L232.103 135.286C230.588 133.027 229.125 130.644 227.994 128.247L227.904 128.331C228.169 131.649 228.336 134.859 228.485 139.352L228.869 150.971L226.34 152.361Z" fill="#5C6BC0"/>
<path d="M258.51 133.833C257.696 134.891 256.029 136.421 253.836 137.629C248.654 140.484 244.475 138.039 244.145 129.523C243.832 121.44 247.59 114.086 253.246 111.376C255.472 110.31 256.891 110.303 257.51 110.454L257.077 113.323C256.186 113.158 254.927 113.319 253.441 114.043C249.18 116.116 246.445 121.348 246.713 128.082C246.964 134.389 249.753 137.029 254.203 134.612C255.619 133.843 257.032 132.655 257.926 131.522L258.51 133.833Z" fill="#5C6BC0"/>
<path d="M265.288 130.946L264.805 120.542L258.727 109.16L261.27 107.938L263.988 113.48C264.728 114.992 265.299 116.217 265.904 117.643L265.954 117.617C266.354 115.791 266.852 113.92 267.41 111.772L269.476 103.997L271.873 102.847L267.007 119.36L267.497 129.732L265.288 130.946Z" fill="#5C6BC0"/>
<g opacity="0.5">
<path d="M271.93 141.156L271.941 145.128C271.947 147.468 274.398 148.925 276.354 147.751L294.453 136.881C295.362 136.336 295.92 135.329 295.917 134.241L295.906 130.27C295.9 127.929 293.449 126.472 291.493 127.647L273.394 138.516C272.485 139.062 271.927 140.068 271.93 141.156Z" fill="#5C6BC0"/>
</g>
<g opacity="0.5">
<path d="M215.114 194.531L215.113 198.511C215.113 200.849 217.554 202.314 219.514 201.151L294.447 156.688C295.36 156.146 295.923 155.14 295.924 154.051L295.924 150.069C295.924 147.731 293.484 146.266 291.524 147.429L216.591 191.893C215.678 192.434 215.114 193.44 215.114 194.531Z" fill="#5C6BC0"/>
</g>
<g opacity="0.5">
<path d="M230.036 205.442L230.035 209.422C230.035 211.76 232.477 213.225 234.436 212.061L294.441 176.463C295.354 175.922 295.918 174.915 295.918 173.825L295.92 169.844C295.92 167.506 293.478 166.042 291.519 167.204L231.514 202.803C230.6 203.346 230.036 204.352 230.036 205.442Z" fill="#5C6BC0"/>
</g>
<g opacity="0.5">
<path d="M255.878 209.848L255.877 213.829C255.876 216.167 258.318 217.631 260.277 216.468L294.439 196.237C295.352 195.695 295.915 194.689 295.916 193.598V189.618C295.917 187.28 293.475 185.815 291.516 186.978L257.354 207.209C257.216 207.291 257.086 207.384 256.964 207.486C256.284 208.058 255.878 208.923 255.878 209.848Z" fill="#5C6BC0"/>
</g>
<path d="M155.429 488.281L136.234 476.644" stroke="#B8E2FF" stroke-width="0.7" stroke-linecap="round" stroke-linejoin="round"/>
<path d="M232.804 535.193L163.785 493.348" stroke="#B8E2FF" stroke-width="0.7" stroke-linecap="round" stroke-linejoin="round"/>
<path d="M231.885 537.93C231.885 541.019 234.304 543.523 237.288 543.523C240.272 543.523 242.691 541.019 242.691 537.93C242.691 534.841 240.272 532.337 237.288 532.337C234.304 532.337 231.885 534.841 231.885 537.93Z" stroke="#B8E2FF" stroke-width="0.7" stroke-miterlimit="10"/>
<g opacity="0.35">
<path d="M307.887 340.197C307.887 358.545 330.503 373.419 358.401 373.419C386.299 373.419 408.915 358.545 408.915 340.197C408.915 321.849 386.299 306.975 358.401 306.975C330.503 306.975 307.887 321.849 307.887 340.197Z" fill="#A6D0F4"/>
</g>
<path d="M343.608 332.644C341.536 333.673 340.289 335.932 340.515 338.299C340.652 339.738 340.843 341.09 341.094 341.413C341.679 342.165 344.523 343.514 347.358 341.773C350.193 340.031 351.744 337.252 352.976 334.988C354.208 332.723 356.415 330.018 356.716 328.404C357.018 326.79 355.237 325.423 353.607 325.79C352.209 326.104 346.366 330.667 344.731 331.959C344.433 332.194 344.127 332.386 343.79 332.554L343.608 332.644Z" fill="#232839"/>
<path d="M340.473 239.581C340.473 239.581 339.818 262.466 340.652 276.281C341.397 288.623 340.335 324.355 340.1 332.292C340.034 334.529 341.165 336.762 343.184 337.56C344.521 338.089 346.214 338.097 348.128 336.957C349.388 336.207 350.193 334.847 350.491 333.374C351.987 325.964 356.961 300.637 357.668 287.826C358.502 272.717 359.24 253.827 360.074 247.783C360.908 241.739 340.473 239.581 340.473 239.581Z" fill="#9774FF"/>
<path d="M371.489 340.75C369.254 341.301 367.572 343.233 367.307 345.597C367.146 347.033 367.056 348.397 367.235 348.767C367.652 349.631 370.155 351.574 373.282 350.494C376.41 349.415 378.495 347.04 380.163 345.098C381.831 343.155 384.542 340.997 385.168 339.486C385.793 337.975 384.334 336.248 382.666 336.248C381.235 336.248 374.59 339.423 372.726 340.328C372.388 340.492 372.05 340.612 371.686 340.702L371.489 340.75Z" fill="#232839"/>
<path d="M377.731 244.042C377.731 244.042 378.843 314.073 376.387 339.442C376.053 342.893 373.035 345.965 369.823 344.978C369.409 344.85 366.639 345.686 366.177 345.481C363.953 344.618 361.605 276.852 359.658 269.081C357.712 261.31 351.874 255.554 352.43 244.042C352.986 232.53 369.668 238.286 377.731 244.042Z" fill="#9774FF"/>
<path d="M379.06 249.608C378.08 254.679 363.89 255.993 355.724 254.641C347.558 253.288 337.93 251.357 338.221 241.556C338.221 241.556 338.978 197.656 338.978 189.952C338.978 182.249 343.66 176.546 343.66 176.546C343.66 176.546 348.233 171.137 362.605 174.18C362.605 174.18 374.314 176.819 379.703 185.78C379.703 185.78 384.214 194.236 382.973 214.779C381.733 235.322 379.06 249.608 379.06 249.608Z" fill="#9774FF"/>
<path d="M371.658 177.884L367.21 175.306C367.21 175.306 355.825 174.201 351.734 171.439L349.6 174.569C349.6 174.569 352.446 180.278 359.739 181.014C367.032 181.751 370.412 178.804 370.412 178.804L371.658 177.884Z" fill="#E1E8F2"/>
<path d="M415.336 221.087L404.09 233.132L399.886 230.109L420.029 207.53L426.948 208.468L415.336 221.087Z" fill="#94C3FF"/>
<path d="M410.656 222.292C410.656 222.292 413.585 219.88 414.442 219.389C415.3 218.898 419.486 218.922 419.958 219.646C420.43 220.369 421.462 223.757 421.09 224.834C420.718 225.911 418.88 226.942 418.477 226.914C418.074 226.885 416.601 226.583 416.601 226.583C416.601 226.583 415.078 228.406 414.26 228.486C413.442 228.565 412.26 228.204 412.26 228.204L410.656 222.292Z" fill="#FF9554"/>
<path d="M374.552 180.36C374.552 180.36 383.706 182.07 387.75 190.189C391.793 198.308 395.461 219.066 395.461 219.066L413.479 217.626C413.479 217.626 416.777 224.628 409.78 229.66C409.78 229.66 390.222 234.008 385.989 228.886C381.755 223.764 374.716 194.036 372.848 188.706C370.98 183.375 374.552 180.36 374.552 180.36Z" fill="#113C7A"/>
<path d="M353.993 163.802C353.993 163.802 352.624 170.8 351.383 174.224C351.176 175.935 358.412 181.714 364.82 180.216C368.541 179.36 368.097 177.434 368.097 177.434C368.097 177.434 364.759 175.523 365.172 170.387C365.586 165.251 358.335 162.732 353.993 163.802Z" fill="#FF7C40"/>
<path d="M376.542 155.052C374.662 162.665 367.043 167.119 359.526 165.003C352.007 162.886 347.437 155 349.317 147.388C351.197 139.776 358.815 135.321 366.334 137.438C373.851 139.554 378.422 147.441 376.542 155.052Z" fill="#FF8654"/>
<path d="M376.228 156.023C376.228 156.023 372.982 169.884 369.322 171.836C365.662 173.788 362.433 167.104 355.567 163.32C348.741 159.368 365.494 148.723 365.494 148.723L376.228 156.023Z" fill="#FF8654"/>
<path d="M354.304 136.688C354.304 136.688 370.965 132.185 377.353 141.552C383.742 150.92 373.704 151.273 371.738 152.935C369.773 154.597 370.813 156.677 369.671 157.937C368.53 159.198 368.263 159.439 368.263 159.439L368.31 161.348L367.242 161.892C367.242 161.892 366.907 158.218 365.817 158.018C364.726 157.819 363.317 159.741 363.388 161.13C363.46 162.518 364.184 164.196 363.771 165.028C363.358 165.86 361.586 167.997 360.495 167.798C359.405 167.598 354.825 165.159 353.397 163.812C351.968 162.465 347.926 157.018 347.206 151.552C346.485 146.085 350.198 142.806 350.198 142.806C350.198 142.806 349.914 138.093 354.304 136.688Z" fill="#96432A"/>
</g>
</svg>
