<svg width="521" height="387" viewBox="0 0 521 387" fill="none" xmlns="http://www.w3.org/2000/svg">
<path d="M131.425 368.279C130.851 368.302 130.281 368.169 129.795 367.897C129.309 367.625 128.929 367.228 128.707 366.759C128.485 366.29 128.432 365.773 128.554 365.276C128.676 364.779 128.969 364.328 129.391 363.983C129.462 363.735 129.513 363.556 129.584 363.308C129.033 362.074 128.078 361.013 126.841 360.261C125.604 359.509 124.14 359.101 122.638 359.088C121.136 359.076 119.664 359.46 118.411 360.191C117.158 360.922 116.18 361.967 115.604 363.191C112.277 370.067 107.972 377.185 110.113 384.758C95.9712 358.29 100.781 325.366 121.681 302.731C127.458 299.921 132.14 294.928 133.359 289.13C130.5 289.986 126.935 287.932 129.085 285.273C130.017 284.256 130.958 283.248 131.889 282.231C121.029 272.017 108.088 288.07 120.043 301.856C116.132 306.186 112.745 310.865 109.936 315.817C110.585 310.559 109.81 305.24 107.677 300.297C105.515 295.691 101.462 291.812 97.8933 287.83C93.5542 282.978 84.6235 285.217 84.0396 291.374C88.0442 292.536 88.5644 297.644 83.9837 298.343C85.1835 309.797 93.6574 320.324 105.328 325.347C101.018 336.026 99.3354 347.394 100.392 358.693C98.3316 345.488 82.2804 342.283 71.0614 337.035C70.3473 336.631 69.5154 336.419 68.6672 336.425C67.819 336.431 66.991 336.654 66.2844 337.069C65.5778 337.483 65.023 338.07 64.6878 338.759C64.3525 339.447 64.2513 340.206 64.3965 340.944C65.9449 341.5 67.427 342.191 68.8209 343.005C69.4741 343.393 69.9754 343.95 70.2562 344.599C70.537 345.248 70.5836 345.958 70.3894 346.632C70.1953 347.305 69.7701 347.91 69.172 348.361C68.5739 348.813 67.8322 349.09 67.0486 349.155C72.7037 361.515 87.3244 369.815 102.341 369.768C103.784 375.305 105.875 380.696 108.58 385.852H130.867C130.947 385.633 131.019 385.407 131.091 385.188C129.028 385.303 126.957 385.194 124.924 384.864C130.382 379.157 134.603 376.246 131.426 368.279L131.425 368.279Z" fill="#F2F2F2"/>
<path d="M330.119 368.279C330.694 368.302 331.263 368.169 331.75 367.897C332.236 367.625 332.616 367.228 332.838 366.759C333.06 366.29 333.113 365.773 332.991 365.276C332.868 364.779 332.576 364.328 332.154 363.983C332.083 363.735 332.032 363.556 331.961 363.308C332.511 362.074 333.466 361.013 334.704 360.261C335.941 359.509 337.405 359.101 338.907 359.088C340.409 359.076 341.88 359.46 343.134 360.191C344.387 360.922 345.365 361.967 345.941 363.191C349.267 370.067 353.572 377.185 351.431 384.758C365.574 358.29 360.764 325.366 339.864 302.731C334.087 299.921 329.405 294.928 328.186 289.13C331.045 289.986 334.609 287.932 332.46 285.273C331.528 284.256 330.587 283.248 329.655 282.231C340.516 272.017 353.457 288.07 341.502 301.856C345.413 306.186 348.8 310.865 351.609 315.817C350.96 310.559 351.734 305.24 353.868 300.297C356.03 295.691 360.083 291.812 363.651 287.83C367.991 282.978 376.921 285.217 377.505 291.374C373.501 292.536 372.98 297.644 377.561 298.343C376.361 309.797 367.887 320.324 356.216 325.347C360.526 336.026 362.209 347.394 361.153 358.693C363.213 345.488 379.264 342.283 390.483 337.035C391.198 336.631 392.029 336.419 392.878 336.425C393.726 336.431 394.554 336.654 395.26 337.069C395.967 337.483 396.522 338.07 396.857 338.759C397.192 339.447 397.293 340.206 397.148 340.944C395.6 341.5 394.118 342.191 392.724 343.005C392.071 343.393 391.569 343.95 391.289 344.599C391.008 345.248 390.961 345.958 391.155 346.632C391.349 347.305 391.775 347.91 392.373 348.361C392.971 348.813 393.713 349.09 394.496 349.155C388.841 361.515 374.22 369.815 359.204 369.768C357.761 375.305 355.67 380.696 352.965 385.852H330.678C330.598 385.633 330.526 385.407 330.454 385.188C332.517 385.303 334.588 385.194 336.621 384.864C331.163 379.157 326.943 376.246 330.119 368.279Z" fill="#F2F2F2"/>
<path d="M338.384 371.201L328.786 373.129L315.795 341.354L329.961 338.508L338.384 371.201Z" fill="#FFB6B6"/>
<path d="M341 379.976L311.484 385.906L311.399 385.577C310.706 382.886 311.251 380.063 312.916 377.727C314.58 375.392 317.226 373.736 320.273 373.123L324.734 368.428L335.724 370.019L338.301 369.501L341 379.976Z" fill="#2F2E41"/>
<path d="M493.216 216.318L498.492 223.656L468.952 245.123L461.164 234.292L493.216 216.318Z" fill="#FFB6B6"/>
<path d="M501.699 211.198L517.926 233.763L517.603 233.944C514.965 235.424 511.77 235.917 508.721 235.316C505.671 234.715 503.016 233.069 501.341 230.74L494.835 228.603L492.846 218.927L491.43 216.957L501.699 211.198Z" fill="#2F2E41"/>
<path d="M187.263 137.866L184.893 125.732L220.933 111.36L228.717 99.1912C228.465 98.1233 228.553 97.0149 228.97 95.9883C229.387 94.9618 230.118 94.057 231.081 93.374C232.044 92.691 233.202 92.2564 234.427 92.1181C235.652 91.9798 236.897 92.1432 238.023 92.5903C239.15 93.0374 240.114 93.7508 240.811 94.6516C241.507 95.5525 241.908 96.6057 241.969 97.6951C242.029 98.7844 241.748 99.8674 241.156 100.825C240.564 101.782 239.683 102.575 238.612 103.118L225.809 120.599L187.263 137.866Z" fill="#A0616A"/>
<path d="M176.309 127.947L192.539 120.626L196.835 134.872L185.562 142.252L176.309 127.947Z" fill="#9774FF"/>
<path d="M139.889 370.098L149.702 370.097L154.371 336.671L139.887 336.672L139.889 370.098Z" fill="#A0616A"/>
<path d="M152.966 370.878V365.003L150.386 365.142L139.884 365.692L137.454 365.823L135.596 385.5L135.496 386.554H142.464L142.688 385.507L143.7 380.745L146.313 385.507L146.886 386.554H165.359C166.459 386.548 167.511 386.159 168.287 385.472C169.064 384.785 169.502 383.855 169.507 382.884C170.287 379.668 154.924 372.717 152.966 370.878Z" fill="#2F2E41"/>
<path d="M23.399 237.443L21.1113 245.871L56.8318 257.674L60.2077 245.236L23.399 237.443Z" fill="#A0616A"/>
<path d="M20.2672 248.493L26.7367 249.863L27.185 247.615L29.0286 238.469L29.4501 236.351L8.21618 230.167L7.07776 229.836L5.45308 235.82L6.55439 236.256L11.5618 238.236L5.70917 239.369L4.42217 239.617L0.114843 255.481C-0.134706 256.426 0.0481639 257.42 0.623778 258.247C1.19939 259.074 2.12125 259.668 3.18917 259.898C6.54865 261.318 17.786 249.746 20.2672 248.493Z" fill="#2F2E41"/>
<path d="M155.062 153.765L142.43 148.551L117.24 175.471L101.897 178.897C100.797 178.402 99.5627 178.185 98.3314 178.27C97.1001 178.355 95.9194 178.739 94.9197 179.38C93.92 180.02 93.1403 180.892 92.6666 181.9C92.1929 182.907 92.0438 184.01 92.2356 185.088C92.4274 186.165 92.9527 187.175 93.7536 188.005C94.5544 188.835 95.5995 189.454 96.7735 189.793C97.9475 190.132 99.2047 190.177 100.406 189.925C101.608 189.672 102.707 189.131 103.582 188.362L126.05 182.056L155.062 153.765Z" fill="#A0616A"/>
<path d="M334.141 54.1117C331.464 54.1117 328.846 53.4105 326.62 52.0969C324.394 50.7833 322.659 48.9162 321.634 46.7318C320.609 44.5473 320.341 42.1437 320.864 39.8247C321.386 37.5057 322.675 35.3755 324.569 33.7036C326.462 32.0317 328.874 30.8931 331.5 30.4319C334.126 29.9706 336.848 30.2073 339.322 31.1122C341.795 32.017 343.91 33.5493 345.397 35.5152C346.885 37.4812 347.679 39.7925 347.679 42.1569C347.675 45.3264 346.247 48.3651 343.709 50.6063C341.171 52.8475 337.73 54.1081 334.141 54.1117ZM334.141 31.5741C331.771 31.5741 329.454 32.1948 327.483 33.3576C325.512 34.5205 323.976 36.1733 323.069 38.107C322.162 40.0408 321.925 42.1687 322.387 44.2215C322.85 46.2744 323.991 48.1601 325.667 49.6401C327.343 51.1202 329.478 52.1281 331.803 52.5364C334.128 52.9447 336.537 52.7352 338.727 51.9342C340.917 51.1332 342.789 49.7768 344.105 48.0364C345.422 46.2961 346.125 44.25 346.125 42.1569C346.122 39.3511 344.858 36.6612 342.611 34.6772C340.364 32.6933 337.318 31.5773 334.141 31.5741Z" fill="#E6E6E6"/>
<path d="M333.186 46.6608C333.159 46.6608 333.132 46.66 333.104 46.6589C332.864 46.6486 332.629 46.5926 332.415 46.4946C332.202 46.3966 332.015 46.259 331.867 46.0913L329.735 43.6702C329.6 43.5174 329.501 43.3426 329.443 43.1559C329.384 42.9692 329.369 42.7742 329.396 42.5821C329.423 42.3899 329.493 42.2044 329.601 42.036C329.709 41.8677 329.854 41.7199 330.027 41.601L330.104 41.5483C330.277 41.4293 330.475 41.3416 330.687 41.2902C330.898 41.2388 331.119 41.2247 331.337 41.2487C331.554 41.2727 331.764 41.3344 331.955 41.4302C332.146 41.5259 332.313 41.654 332.448 41.8069C332.555 41.929 332.692 42.0292 332.847 42.1005C333.003 42.1718 333.174 42.2127 333.349 42.2202C333.524 42.2277 333.699 42.2018 333.862 42.1441C334.024 42.0865 334.171 41.9985 334.292 41.8862L338.622 37.8495C338.927 37.566 339.346 37.4008 339.789 37.3902C340.231 37.3796 340.661 37.5244 340.982 37.7928L341.053 37.8526C341.212 37.9857 341.34 38.1453 341.43 38.3221C341.519 38.4989 341.568 38.6896 341.574 38.8831C341.58 39.0767 341.543 39.2694 341.464 39.4502C341.386 39.6311 341.268 39.7965 341.117 39.937L334.398 46.2003C334.242 46.3458 334.054 46.4616 333.845 46.5408C333.637 46.62 333.413 46.6608 333.186 46.6608Z" fill="#E6E6E6"/>
<path d="M266.561 198.85C263.884 198.85 261.266 198.149 259.04 196.835C256.814 195.522 255.079 193.655 254.054 191.47C253.029 189.286 252.761 186.882 253.284 184.563C253.806 182.244 255.095 180.114 256.989 178.442C258.882 176.77 261.294 175.631 263.92 175.17C266.546 174.709 269.268 174.946 271.742 175.85C274.215 176.755 276.33 178.288 277.817 180.253C279.305 182.219 280.099 184.531 280.099 186.895C280.095 190.065 278.667 193.103 276.129 195.345C273.591 197.586 270.15 198.846 266.561 198.85ZM266.561 176.312C264.191 176.312 261.874 176.933 259.903 178.096C257.932 179.259 256.396 180.912 255.489 182.845C254.582 184.779 254.345 186.907 254.807 188.96C255.27 191.013 256.411 192.898 258.087 194.378C259.763 195.858 261.898 196.866 264.223 197.275C266.548 197.683 268.957 197.473 271.147 196.672C273.337 195.871 275.209 194.515 276.525 192.775C277.842 191.034 278.545 188.988 278.545 186.895C278.541 184.089 277.278 181.399 275.031 179.416C272.784 177.432 269.738 176.316 266.561 176.312Z" fill="#E6E6E6"/>
<path d="M265.604 191.399C265.577 191.399 265.549 191.398 265.522 191.397C265.282 191.387 265.047 191.331 264.833 191.233C264.62 191.135 264.433 190.997 264.285 190.83L262.153 188.408C262.018 188.256 261.919 188.081 261.861 187.894C261.802 187.707 261.786 187.512 261.814 187.32C261.841 187.128 261.911 186.943 262.019 186.774C262.127 186.606 262.272 186.458 262.445 186.339L262.522 186.287C262.695 186.168 262.893 186.08 263.105 186.028C263.316 185.977 263.537 185.963 263.755 185.987C263.972 186.011 264.182 186.073 264.373 186.168C264.564 186.264 264.731 186.392 264.866 186.545C264.973 186.667 265.11 186.767 265.265 186.839C265.421 186.91 265.592 186.951 265.767 186.958C265.942 186.966 266.117 186.94 266.28 186.882C266.442 186.825 266.589 186.737 266.71 186.624L271.04 182.588C271.344 182.304 271.764 182.139 272.207 182.128C272.649 182.118 273.078 182.263 273.4 182.531L273.471 182.591C273.63 182.724 273.758 182.884 273.848 183.06C273.937 183.237 273.986 183.428 273.992 183.621C273.998 183.815 273.961 184.008 273.882 184.189C273.804 184.369 273.686 184.535 273.535 184.675L266.816 190.939C266.66 191.084 266.472 191.2 266.263 191.279C266.055 191.358 265.831 191.399 265.604 191.399Z" fill="#E6E6E6"/>
<path d="M118.194 37.6488C115.516 37.6488 112.899 36.9477 110.673 35.6341C108.447 34.3204 106.711 32.4534 105.687 30.2689C104.662 28.0845 104.394 25.6808 104.916 23.3618C105.439 21.0428 106.728 18.9126 108.621 17.2407C110.515 15.5688 112.927 14.4302 115.553 13.969C118.179 13.5077 120.901 13.7444 123.374 14.6493C125.848 15.5541 127.962 17.0864 129.45 19.0523C130.937 21.0183 131.731 23.3296 131.731 25.694C131.727 28.8635 130.3 31.9022 127.762 34.1434C125.224 36.3846 121.783 37.6453 118.194 37.6488ZM118.194 15.1112C115.824 15.1112 113.507 15.7319 111.536 16.8947C109.565 18.0576 108.029 19.7104 107.122 21.6442C106.215 23.5779 105.978 25.7058 106.44 27.7586C106.903 29.8115 108.044 31.6972 109.72 33.1772C111.396 34.6573 113.531 35.6652 115.856 36.0735C118.181 36.4819 120.59 36.2723 122.78 35.4713C124.97 34.6703 126.841 33.3139 128.158 31.5735C129.475 29.8332 130.178 27.7871 130.178 25.694C130.174 22.8883 128.911 20.1983 126.664 18.2143C124.417 16.2304 121.371 15.1144 118.194 15.1112Z" fill="#E6E6E6"/>
<path d="M117.239 30.1979C117.211 30.1979 117.184 30.1971 117.157 30.196C116.917 30.1857 116.682 30.1297 116.468 30.0317C116.255 29.9337 116.068 29.7961 115.92 29.6284L113.788 27.2073C113.653 27.0545 113.554 26.8797 113.495 26.693C113.437 26.5063 113.421 26.3113 113.448 26.1192C113.476 25.927 113.545 25.7415 113.654 25.5731C113.762 25.4048 113.907 25.257 114.08 25.1381L114.157 25.0854C114.33 24.9664 114.528 24.8787 114.739 24.8273C114.951 24.7759 115.172 24.7618 115.389 24.7858C115.607 24.8098 115.817 24.8715 116.008 24.9673C116.198 25.063 116.366 25.1911 116.5 25.344C116.608 25.4661 116.744 25.5663 116.9 25.6376C117.056 25.7089 117.227 25.7498 117.402 25.7573C117.577 25.7648 117.752 25.7389 117.915 25.6812C118.077 25.6236 118.224 25.5356 118.345 25.4233L122.674 21.3866C122.979 21.1031 123.399 20.9379 123.841 20.9273C124.284 20.9167 124.713 21.0615 125.035 21.3299L125.106 21.3897C125.265 21.5228 125.393 21.6824 125.483 21.8592C125.572 22.036 125.621 22.2267 125.627 22.4202C125.633 22.6138 125.595 22.8065 125.517 22.9873C125.439 23.1682 125.321 23.3336 125.17 23.4741L118.45 29.7374C118.294 29.8829 118.107 29.9987 117.898 30.0779C117.69 30.1571 117.465 30.1979 117.239 30.1979Z" fill="#E6E6E6"/>
<path d="M226.576 243.299C195.184 243.299 159.107 212.536 127.187 227.152C30.5434 271.406 43.847 197.354 16.082 169.814L16.9936 168.199C47.629 192.457 85.8783 212.194 127.607 225.274C165.316 237.097 203.308 242.574 237.462 241.129L237.521 243.07C233.915 243.223 230.266 243.3 226.576 243.299Z" fill="#F2F2F2"/>
<path d="M183.515 35.309C187.139 35.309 190.077 31.8301 190.077 27.5388C190.077 23.2474 187.139 19.7686 183.515 19.7686C179.891 19.7686 176.953 23.2474 176.953 27.5388C176.953 31.8301 179.891 35.309 183.515 35.309Z" fill="#E6E6E6"/>
<path d="M259.303 156.525C256.303 158.29 253.233 154.089 256.291 152.402C259.29 150.637 262.361 154.838 259.303 156.525Z" fill="#E6E6E6"/>
<path d="M242.035 15.0912C246.754 15.0912 250.579 11.7129 250.579 7.54559C250.579 3.37828 246.754 0 242.035 0C237.316 0 233.49 3.37828 233.49 7.54559C233.49 11.7129 237.316 15.0912 242.035 15.0912Z" fill="#FF6584"/>
<path d="M222.845 201.668C227.436 201.668 231.158 198.381 231.158 194.327C231.158 190.272 227.436 186.985 222.845 186.985C218.253 186.985 214.531 190.272 214.531 194.327C214.531 198.381 218.253 201.668 222.845 201.668Z" fill="#F2F2F2"/>
<path d="M142.326 197.127C142.326 197.127 121.601 209.044 127.081 216.964C127.27 217.237 102.325 246.33 102.325 246.33L55.2353 243.69L53.5762 257.609L95.4992 268.331C95.4992 268.331 105.755 274.985 113.678 267.654C121.601 260.322 147.992 237.872 147.992 237.872L149.265 283.198L136.017 346.007L155.798 344.9L175.051 281.887L182.157 210.51L142.326 197.127Z" fill="#2F2E41"/>
<path d="M157.09 125.603L148.374 131.436L138.441 150.158L147.993 161.614C147.993 161.614 156.028 173.911 143.167 185.82C130.306 197.729 120.43 210.448 130.724 209.994C141.018 209.54 182.71 228.266 182.984 212.924C183.259 197.582 183.814 185.82 183.814 185.82L194.745 161.337C194.745 161.337 201.257 146.732 196.685 142.36C192.112 137.988 185.99 132.402 185.99 132.402L174.858 122.57H164.805L157.09 125.603Z" fill="#9774FF"/>
<path d="M173.358 89.6304C192.91 99.4554 176.859 125.379 156.943 116.148C137.391 106.323 153.442 80.3997 173.358 89.6304Z" fill="#A0616A"/>
<path d="M183.814 95.0785C182.444 96.652 179.581 95.9142 173.976 97.0369C173.989 95.3592 173.769 93.6863 173.323 92.0555C172.906 94.0747 171.992 95.9885 170.645 97.6616C165.778 98.1383 171.745 111.195 169.253 120.796C166.042 100.543 159.288 105.849 162.7 109.866C164.884 112.437 163.428 120.153 156.876 116.295C146.064 120.832 130.666 98.2931 147.732 87.7225C147.427 82.0088 154.627 81.1062 159.06 82.8628C169.819 75.7852 182.111 84.8541 183.814 95.0785Z" fill="#2F2E41"/>
<path d="M133.647 80.2998C129.294 103.934 105.962 75.9531 94.9915 99.2118C91.5422 107.635 97.4602 113.66 101.204 120.652C102.058 126.397 93.5937 129.312 92.7071 134.601C92.4604 146.726 114.612 145.984 120.805 138.335C127.168 130.326 119.57 119.582 123.394 110.986C128.77 99.0523 150.631 98.9637 152.536 85.0796C148.847 80.4413 138.929 75.1289 133.647 80.2998Z" fill="#2F2E41"/>
<path d="M151.281 82.6093C151.139 82.6622 150.996 82.7151 150.869 82.7747H150.861C150.742 82.8277 150.622 82.8806 150.502 82.9402C150.487 82.9468 150.479 82.9534 150.464 82.9601C150.307 82.8277 150.149 82.6953 149.985 82.5629C149.942 82.7785 149.952 82.9997 150.015 83.2115L150.037 83.291C150.187 83.43 150.344 83.5623 150.509 83.7014C150.659 83.6021 150.802 83.4962 150.951 83.3969C151.041 83.3307 151.131 83.2645 151.229 83.1983C151.244 83.0262 151.266 82.8277 151.289 82.6092L151.281 82.6093ZM155.793 75.2492C152.45 74.5741 151.371 78.4328 151.049 80.2927C149.835 73.5416 144.783 75.6662 146.529 80.2728C147.086 81.6367 147.962 82.8816 149.1 83.9264C149.258 84.0852 149.43 84.244 149.61 84.4029C149.407 85.3295 150.427 85.0913 151.806 84.2374C152.824 83.5979 153.766 82.8683 154.616 82.0599C157.367 79.5117 159.511 76.103 155.793 75.2492ZM155.898 79.0484C154.867 80.2228 153.71 81.3066 152.443 82.2849C152.046 82.6026 151.641 82.9071 151.229 83.1983C151.221 83.2579 151.221 83.3108 151.214 83.3572C151.185 83.4215 151.15 83.4835 151.109 83.5425C150.689 84.211 150.217 83.8469 150.037 83.291C150.022 83.2711 150 83.2512 149.985 83.2314C149.386 82.685 148.865 82.076 148.433 81.4179C145.338 76.6789 150.322 73.4555 150.074 82.3048C150.029 82.386 149.999 82.4731 149.985 82.5629C149.942 82.7785 149.952 82.9997 150.015 83.2115L150.037 83.291C150.187 83.43 150.344 83.5623 150.509 83.7014C150.659 83.6021 150.802 83.4962 150.951 83.3969C151.041 83.3307 151.131 83.2645 151.229 83.1983C151.244 83.0262 151.266 82.8277 151.289 82.6092V82.6026C151.484 80.8288 152.016 77.6386 152.998 76.7715C155.156 75.3088 157.952 76.8907 155.898 79.0484ZM151.281 82.6093C151.139 82.6622 150.996 82.7151 150.869 82.7747H150.861C150.742 82.8277 150.622 82.8806 150.502 82.9402C150.487 82.9468 150.479 82.9534 150.464 82.9601C150.307 82.8277 150.149 82.6953 149.985 82.5629C149.942 82.7785 149.952 82.9997 150.015 83.2115L150.037 83.291C150.187 83.43 150.344 83.5623 150.509 83.7014C150.659 83.6021 150.802 83.4962 150.951 83.3969C151.041 83.3307 151.131 83.2645 151.229 83.1983C151.244 83.0262 151.266 82.8277 151.289 82.6092L151.281 82.6093Z" fill="#2F2E41"/>
<path d="M331.994 212.914L324.773 229.544L290.898 288.55L320.664 357.192L336.025 353.611L323.364 288.55L359.689 249.574L402.829 275.412C402.829 275.412 421.961 288.602 429.239 276.098C436.518 263.594 483.614 236.998 483.614 236.998L471.963 226.022L417.728 248.435L380.296 201.908L331.994 212.914Z" fill="#2F2E41"/>
<path d="M368.43 134.472L356.543 123.194L336.152 120.717L311.168 136.162L311.42 153.259L323.77 193.545C323.77 193.545 319.066 222.488 332.206 222.198C345.346 221.908 352.509 216.122 357.861 217.3C363.213 218.478 385.963 223.49 387.405 218.24C388.846 212.99 396.51 216.749 396.174 211.783C395.837 206.816 375.427 171.018 375.427 171.018L380.501 135.217L368.43 134.472Z" fill="#7E90FE"/>
<path d="M443.694 82.5575C443.8 83.4928 443.673 84.4373 443.321 85.3245C442.97 86.2117 442.402 87.02 441.658 87.6925C440.915 88.365 440.013 88.8852 439.017 89.2167C438.021 89.5482 436.955 89.6828 435.893 89.611L408.558 135.52L401.219 125.571L429.159 82.243C429.414 80.6764 430.311 79.2469 431.679 78.2251C433.048 77.2034 434.793 76.6604 436.585 76.6992C438.376 76.738 440.09 77.3558 441.4 78.4355C442.71 79.5152 443.526 80.9819 443.694 82.5575Z" fill="#FFB6B6"/>
<path d="M357.64 143.008C357.64 143.008 356.555 151.174 366.966 153.196C377.377 155.217 406.219 140.664 410.947 138.441C412.428 137.745 414.437 134.333 416.498 129.975C417.424 128.018 418.36 125.87 419.263 123.692C419.786 122.432 422.29 122.088 422.782 120.837C423.272 119.594 421.752 117.445 422.195 116.273C424.301 110.711 425.794 106.299 425.794 106.299L418.894 94.8535C409.244 99.3588 404.294 109.282 400.654 120.715L357.64 143.008Z" fill="#7E90FE"/>
<path d="M236.058 93.0996C236.22 94.0286 236.61 94.9149 237.202 95.6962C237.794 96.4774 238.573 97.1345 239.484 97.6213C240.394 98.108 241.415 98.4125 242.473 98.5133C243.531 98.6141 244.602 98.5088 245.609 98.2047L285.085 136.612L289.371 125.358L250.041 89.5829C249.35 88.1225 248.077 86.9366 246.462 86.2498C244.848 85.563 243.004 85.4231 241.28 85.8566C239.557 86.2901 238.073 87.2668 237.11 88.6018C236.148 89.9367 235.773 91.537 236.058 93.0996Z" fill="#FFB6B6"/>
<path d="M336.505 132.608C336.505 132.608 339.869 140.275 330.363 144.533C320.857 148.791 288.808 141.075 283.6 139.968C281.969 139.621 279.057 136.762 275.826 132.998C274.376 131.308 272.861 129.435 271.369 127.526C270.505 126.421 267.984 126.641 267.153 125.54C266.326 124.445 267.189 122.027 266.427 120.991C262.812 116.072 260.117 112.13 260.117 112.13L263.554 99.5234C274.174 101.753 281.778 110.267 288.542 120.531L336.505 132.608Z" fill="#7E90FE"/>
<path d="M346.756 117.847C357.471 117.847 366.158 110.177 366.158 100.715C366.158 91.2526 357.471 83.582 346.756 83.582C336.042 83.582 327.355 91.2526 327.355 100.715C327.355 110.177 336.042 117.847 346.756 117.847Z" fill="#FFB6B6"/>
<path d="M368.902 90.9053C366.861 88.1172 363.031 86.2591 359.319 86.7812C358.973 84.6889 357.984 82.7204 356.46 81.0901C354.935 79.4598 352.933 78.2301 350.672 77.535C348.41 76.8398 345.976 76.7059 343.635 77.1477C341.293 77.5895 339.134 78.5901 337.392 80.0407C336.819 79.6844 336.152 79.4649 335.454 79.4033C334.757 79.3417 334.054 79.4401 333.412 79.689C332.134 80.202 331.023 80.99 330.179 81.9807C328.049 84.3267 326.679 87.139 326.215 90.1181C325.751 93.0973 326.21 96.1318 327.544 98.8986C327.09 97.442 328.743 96.0717 330.414 95.7448C332.084 95.4179 333.836 95.7272 335.529 95.5143C337.7 95.2415 339.651 94.1295 341.826 93.8792C343.669 93.7733 345.519 93.9832 347.272 94.4973C349.025 95.0113 350.872 95.2303 352.717 95.1429C354.547 94.9511 356.904 101.075 356.872 105.388C356.866 106.206 357.057 107.255 357.962 107.429C359.076 107.642 359.721 106.285 360.781 105.915C361.27 105.791 361.794 105.84 362.243 106.05C362.692 106.261 363.03 106.618 363.187 107.044C363.321 107.478 363.335 107.934 363.229 108.374C363.123 108.814 362.899 109.225 362.577 109.574C361.925 110.264 361.151 110.856 360.286 111.329L360.722 111.65C361.137 112.036 361.691 112.284 362.289 112.349C362.888 112.415 363.493 112.295 364.002 112.009C365.004 111.411 365.814 110.595 366.358 109.641C368.404 106.847 369.867 103.751 370.677 100.5C371.361 97.236 370.943 93.6934 368.902 90.9053Z" fill="#2F2E41"/>
<path id="dance" d="M512.431 158.478C487.406 175.215 437.614 169.927 422.162 198.597C375.378 285.403 335.354 219.278 294.391 212.127L294.014 210.354C335.02 213.357 379.005 208.697 421.213 196.877C459.356 186.195 493.388 170.305 519.625 150.943L520.999 152.459C518.229 154.504 515.373 156.511 512.431 158.478Z" fill="#F2F2F2"/>
<path d="M406.628 385.831C406.032 387.39 65.7427 387.39 65.0996 385.835C65.6949 384.272 405.984 384.272 406.628 385.831Z" fill="#CCCCCC"/>
</svg>
